<mxfile host="app.diagrams.net" modified="2022-09-30T14:10:39.520Z" agent="5.0 (Windows NT 10.0; Win64; x64) AppleWebKit/537.36 (KHTML, like Gecko) Chrome/105.0.0.0 Safari/537.36" etag="CfYiyJaMGbP2FnsSDdFt" version="20.4.0" type="github">
  <diagram id="R2lEEEUBdFMjLlhIrx00" name="Page-1">
    <mxGraphModel dx="813" dy="454" grid="1" gridSize="10" guides="1" tooltips="1" connect="1" arrows="1" fold="1" page="1" pageScale="1" pageWidth="850" pageHeight="1100" math="0" shadow="0" extFonts="Permanent Marker^https://fonts.googleapis.com/css?family=Permanent+Marker">
      <root>
        <mxCell id="0" />
        <mxCell id="1" parent="0" />
        <mxCell id="NctWuil8RrD8gpLTqutB-1" value="Termék" style="rounded=0;whiteSpace=wrap;html=1;" parent="1" vertex="1">
          <mxGeometry x="160" y="160" width="120" height="40" as="geometry" />
        </mxCell>
        <mxCell id="NctWuil8RrD8gpLTqutB-2" value="Gyártó" style="rounded=0;whiteSpace=wrap;html=1;" parent="1" vertex="1">
          <mxGeometry x="520" y="160" width="120" height="40" as="geometry" />
        </mxCell>
        <mxCell id="NctWuil8RrD8gpLTqutB-4" value="Relationship" style="shape=rhombus;perimeter=rhombusPerimeter;whiteSpace=wrap;html=1;align=center;" parent="1" vertex="1">
          <mxGeometry x="350" y="160" width="100" height="40" as="geometry" />
        </mxCell>
        <mxCell id="NctWuil8RrD8gpLTqutB-7" value="" style="edgeStyle=entityRelationEdgeStyle;fontSize=12;html=1;endArrow=ERmany;rounded=0;entryX=1;entryY=0.5;entryDx=0;entryDy=0;exitX=0;exitY=0.5;exitDx=0;exitDy=0;" parent="1" source="NctWuil8RrD8gpLTqutB-4" target="NctWuil8RrD8gpLTqutB-1" edge="1">
          <mxGeometry width="100" height="100" relative="1" as="geometry">
            <mxPoint x="240" y="320" as="sourcePoint" />
            <mxPoint x="340" y="220" as="targetPoint" />
          </mxGeometry>
        </mxCell>
        <mxCell id="NctWuil8RrD8gpLTqutB-10" value="tkód" style="ellipse;whiteSpace=wrap;html=1;verticalAlign=middle;fontStyle=4" parent="1" vertex="1">
          <mxGeometry x="50" y="100" width="70" height="50" as="geometry" />
        </mxCell>
        <mxCell id="NctWuil8RrD8gpLTqutB-11" value="név" style="ellipse;whiteSpace=wrap;html=1;" parent="1" vertex="1">
          <mxGeometry x="50" y="170" width="70" height="50" as="geometry" />
        </mxCell>
        <mxCell id="NctWuil8RrD8gpLTqutB-12" value="ear" style="ellipse;whiteSpace=wrap;html=1;" parent="1" vertex="1">
          <mxGeometry x="50" y="240" width="70" height="50" as="geometry" />
        </mxCell>
        <mxCell id="NctWuil8RrD8gpLTqutB-14" value="" style="endArrow=none;html=1;rounded=0;exitX=1;exitY=0.5;exitDx=0;exitDy=0;entryX=0.5;entryY=0;entryDx=0;entryDy=0;" parent="1" source="NctWuil8RrD8gpLTqutB-10" target="NctWuil8RrD8gpLTqutB-1" edge="1">
          <mxGeometry relative="1" as="geometry">
            <mxPoint x="310" y="230" as="sourcePoint" />
            <mxPoint x="470" y="230" as="targetPoint" />
          </mxGeometry>
        </mxCell>
        <mxCell id="NctWuil8RrD8gpLTqutB-15" value="" style="endArrow=none;html=1;rounded=0;exitX=1;exitY=0.5;exitDx=0;exitDy=0;entryX=0;entryY=0.5;entryDx=0;entryDy=0;" parent="1" source="NctWuil8RrD8gpLTqutB-11" target="NctWuil8RrD8gpLTqutB-1" edge="1">
          <mxGeometry relative="1" as="geometry">
            <mxPoint x="310" y="230" as="sourcePoint" />
            <mxPoint x="470" y="230" as="targetPoint" />
          </mxGeometry>
        </mxCell>
        <mxCell id="NctWuil8RrD8gpLTqutB-16" value="" style="endArrow=none;html=1;rounded=0;exitX=1;exitY=0.5;exitDx=0;exitDy=0;entryX=0.5;entryY=1;entryDx=0;entryDy=0;" parent="1" source="NctWuil8RrD8gpLTqutB-12" target="NctWuil8RrD8gpLTqutB-1" edge="1">
          <mxGeometry relative="1" as="geometry">
            <mxPoint x="310" y="230" as="sourcePoint" />
            <mxPoint x="470" y="230" as="targetPoint" />
          </mxGeometry>
        </mxCell>
        <mxCell id="NctWuil8RrD8gpLTqutB-17" value="adószám" style="ellipse;whiteSpace=wrap;html=1;verticalAlign=middle;fontStyle=4" parent="1" vertex="1">
          <mxGeometry x="680" y="90" width="70" height="50" as="geometry" />
        </mxCell>
        <mxCell id="NctWuil8RrD8gpLTqutB-18" value="név" style="ellipse;whiteSpace=wrap;html=1;verticalAlign=middle;fontStyle=4" parent="1" vertex="1">
          <mxGeometry x="680" y="160" width="70" height="50" as="geometry" />
        </mxCell>
        <mxCell id="NctWuil8RrD8gpLTqutB-19" value="telephely" style="ellipse;whiteSpace=wrap;html=1;verticalAlign=middle;fontStyle=4" parent="1" vertex="1">
          <mxGeometry x="680" y="230" width="70" height="50" as="geometry" />
        </mxCell>
        <mxCell id="NctWuil8RrD8gpLTqutB-20" value="" style="endArrow=none;html=1;rounded=0;entryX=0;entryY=0.5;entryDx=0;entryDy=0;exitX=0.5;exitY=0;exitDx=0;exitDy=0;" parent="1" source="NctWuil8RrD8gpLTqutB-2" target="NctWuil8RrD8gpLTqutB-17" edge="1">
          <mxGeometry relative="1" as="geometry">
            <mxPoint x="310" y="230" as="sourcePoint" />
            <mxPoint x="470" y="230" as="targetPoint" />
          </mxGeometry>
        </mxCell>
        <mxCell id="NctWuil8RrD8gpLTqutB-21" value="" style="endArrow=none;html=1;rounded=0;entryX=0;entryY=0.5;entryDx=0;entryDy=0;exitX=1;exitY=0.5;exitDx=0;exitDy=0;" parent="1" source="NctWuil8RrD8gpLTqutB-2" target="NctWuil8RrD8gpLTqutB-18" edge="1">
          <mxGeometry relative="1" as="geometry">
            <mxPoint x="310" y="230" as="sourcePoint" />
            <mxPoint x="470" y="230" as="targetPoint" />
          </mxGeometry>
        </mxCell>
        <mxCell id="NctWuil8RrD8gpLTqutB-22" value="" style="endArrow=none;html=1;rounded=0;entryX=0;entryY=0.5;entryDx=0;entryDy=0;exitX=0.5;exitY=1;exitDx=0;exitDy=0;" parent="1" source="NctWuil8RrD8gpLTqutB-2" target="NctWuil8RrD8gpLTqutB-19" edge="1">
          <mxGeometry relative="1" as="geometry">
            <mxPoint x="310" y="230" as="sourcePoint" />
            <mxPoint x="470" y="230" as="targetPoint" />
          </mxGeometry>
        </mxCell>
        <mxCell id="qZXx_IgKt7hqXRv4wPrJ-1" value="" style="edgeStyle=entityRelationEdgeStyle;fontSize=12;html=1;endArrow=ERone;endFill=1;rounded=0;entryX=0;entryY=0.5;entryDx=0;entryDy=0;exitX=1;exitY=0.5;exitDx=0;exitDy=0;" edge="1" parent="1" source="NctWuil8RrD8gpLTqutB-4" target="NctWuil8RrD8gpLTqutB-2">
          <mxGeometry width="100" height="100" relative="1" as="geometry">
            <mxPoint x="375" y="290" as="sourcePoint" />
            <mxPoint x="475" y="190" as="targetPoint" />
          </mxGeometry>
        </mxCell>
      </root>
    </mxGraphModel>
  </diagram>
</mxfile>
